# xmcd
#
# Track frame offsets: 
#        150
#        20812
#        42112
#
# Disc length: 776 seconds
#
# Revision: 2
# Processed by: cddbd v1.5.2PL0 Copyright (c) Steve Scherf et al.
# Submitted via: ExactAudioCopy v0.90b4
#
DISCID=1e030603
DTITLE=Snow - 剃さまの魚
DYEAR=2005
DGENRE=JPop
TTITLE0=剃さまの魚
TTITLE1=night light
TTITLE2=Bleach (English version)
EXTD=YEAR: 2000
EXTT0=
EXTT1=
EXTT2=
PLAYORDER=
